<?xml version="1.0" encoding="iso-8859-1"?>
<!-- Generator: Adobe Illustrator 18.0.0, SVG Export Plug-In . SVG Version: 6.00 Build 0)  -->
<!DOCTYPE svg PUBLIC "-//W3C//DTD SVG 1.1//EN" "http://www.w3.org/Graphics/SVG/1.1/DTD/svg11.dtd">
<svg version="1.1" id="Capa_1" xmlns="http://www.w3.org/2000/svg" xmlns:xlink="http://www.w3.org/1999/xlink" x="0px" y="0px"
	 viewBox="0 0 354.217 354.217" style="enable-background:new 0 0 354.217 354.217;" xml:space="preserve">
<g>
	<path d="M329.62,77.9c3.76-9.199,5.125-15.563,5.613-19.197l11.244-11.246l0,0c4.772-4.772,7.398-11.113,7.398-17.861
		c0-6.748-2.627-13.092-7.396-17.861l-4.346-4.35c-9.85-9.848-25.877-9.846-35.727,0.002l-11.258,11.258
		c-7.777,1.076-28.273,6.193-62.145,30.262c-54.52,38.738-117.817,107.117-188.131,203.236c-2.184,2.984-1.865,7.117,0.75,9.732
		l2.324,2.324L16.647,290.75c-2.244,1.902-3.18,4.895-2.377,7.725c0.242,0.891,5.691,22.072-12.182,43.43
		c-2.574,3.078-2.272,7.637,0.689,10.346c1.436,1.314,3.25,1.967,5.063,1.967c1.703,0,3.402-0.58,4.785-1.727
		c0.008-0.008,0.019-0.014,0.029-0.021c21.355-17.873,42.535-12.42,43.379-12.193c2.834,0.803,5.869-0.117,7.773-2.363
		l26.551-31.305l1.633,1.635c1.453,1.451,3.375,2.195,5.307,2.195c1.545,0,3.1-0.477,4.426-1.445
		c96.702-70.74,165.301-134.352,203.899-189.066c7.4-10.49,12.969-19.664,17.16-27.555l4.807,4.809
		c3.166,3.166,4.91,7.377,4.91,11.855c0,4.479-1.744,8.689-4.91,11.855l-86.596,86.596c-2.93,2.93-2.93,7.678,0,10.607
		c1.465,1.463,3.385,2.195,5.303,2.195c1.92,0,3.84-0.732,5.305-2.195l86.596-86.596c5.998-6,9.303-13.979,9.303-22.463
		c0-8.486-3.305-16.463-9.303-22.463L329.62,77.9z M55.184,324.889c-3.484-0.475-8.594-0.822-14.721-0.19l9.76-9.76
		c2.928-2.928,2.928-7.678-0.002-10.605c-2.928-2.928-7.676-2.93-10.605,0l-9.758,9.758c0.633-6.125,0.285-11.236-0.187-14.721
		l28.92-24.529l21.125,21.125L55.184,324.889z M98.045,293.082L60.782,255.82c39.918-54.176,74.459-94.883,103.549-125.438
		l59.157,59.158C192.862,218.699,152.141,253.225,98.045,293.082z M293.364,111.279c-12.074,17.117-30.662,39.738-59.106,67.818
		l-59.486-59.486c26.75-27.1,48.428-45.143,64.949-57.066c30.895-22.297,49.449-27.568,56.088-28.807l24.35,24.351
		C319.023,64.379,314.148,81.816,293.364,111.279z M309.146,25.861l7.869-7.867c4.002-4.004,10.512-4.002,14.51-0.006l4.346,4.352
		c1.939,1.938,3.006,4.516,3.006,7.256s-1.066,5.316-3.006,7.256l0,0l0,0l-7.867,7.869L309.146,25.861z"/>
</g>
<g>
</g>
<g>
</g>
<g>
</g>
<g>
</g>
<g>
</g>
<g>
</g>
<g>
</g>
<g>
</g>
<g>
</g>
<g>
</g>
<g>
</g>
<g>
</g>
<g>
</g>
<g>
</g>
<g>
</g>
</svg>
